<svg xmlns="http://www.w3.org/2000/svg" viewBox="0 0 649.92 161.33"><defs><style>.cls-1{fill:#ababab;}.cls-2{fill:#fff;}</style></defs><g id="Layer_2" data-name="Layer 2"><g id="Layer_1-2" data-name="Layer 1"><g id="Layer_2-2" data-name="Layer 2"><g id="Layer_1-2-2" data-name="Layer 1-2"><path class="cls-1" d="M114.6,15.31h0a33.31,33.31,0,0,0-46.27,4.55L58.59,31.51A8.31,8.31,0,1,0,71.24,42.29l.1-.12h0l9.74-11.66a16.57,16.57,0,0,1,23.34-2.05c.12.09.23.19.35.3a16.93,16.93,0,0,1,1.38,23.34L85.9,76.34l-.18.2A15.85,15.85,0,0,1,82,79.75,16.55,16.55,0,0,1,61.13,77,8.31,8.31,0,0,0,49,88.29,33.18,33.18,0,0,0,78.88,98.37a34.26,34.26,0,0,0,5-1.28A33,33,0,0,0,98.68,87l20.19-24.17a34.1,34.1,0,0,0,7.7-25.08A32.63,32.63,0,0,0,114.6,15.31Z"/><path class="cls-1" d="M54.81,105.07l-8.7,10.42a16.92,16.92,0,0,1-23.22,2.79A16.56,16.56,0,0,1,20.1,95l0,0,.29-.36L41,70l.15-.17a16,16,0,0,1,3.76-3.21A16.51,16.51,0,0,1,64.24,68,17.87,17.87,0,0,1,66,69.72a8.31,8.31,0,0,0,6.33,2.8,8.2,8.2,0,0,0,6.18-2.94l.1-.12a8.19,8.19,0,0,0-.14-10.73,33.16,33.16,0,0,0-46.81-2.9h0a34.9,34.9,0,0,0-3.5,3.59L7.66,84a33.3,33.3,0,0,0,3.75,46.34,32.58,32.58,0,0,0,24.17,7.8q1.56-.12,3.09-.39a34.23,34.23,0,0,0,20.22-11.64l8.67-10.38a8.31,8.31,0,0,0-12.75-10.66Z"/><path class="cls-2" d="M290.54,122.57H269.8l-9.35-78.71-31.62,65.45H212L180.21,44l-9.52,78.54H150L164.23,5.44h18L220.33,86,258.24,5.44h18Z"/><path class="cls-2" d="M354.46,43.18h21.25l-49.3,118.15H305.67L323.52,117,291.9,43.18h21.59L334.06,93.5Z"/><path class="cls-2" d="M405.63,104h45.56v18.53h-66.3V5.44h20.74Z"/><path class="cls-2" d="M456.63,15.13c0-7,5.95-12.07,12.92-12.07,7.14,0,12.75,5.1,12.75,12.07,0,6.8-5.61,12.07-12.75,12.07C462.58,27.2,456.63,21.93,456.63,15.13Zm3.06,107.44V43.18h19.72v79.39Z"/><path class="cls-2" d="M565.43,78v44.54H545.71V79.39c0-12.75-7.65-19.55-16.49-19.55-9,0-20.23,5.27-20.23,20.57v42.16H489.27V43.18H509V55.76c4.08-10,16.49-14.62,24.65-14.62C554,41.14,565.43,54.91,565.43,78Z"/><path class="cls-2" d="M649.92,122.57h-25L594,86.53v36H574.27V0H594V68.51l22.78-25.33h25.67l-32.3,34.68Z"/></g></g></g></g></svg>